<svg width="515" height="476" viewBox="0 0 515 476" fill="none" xmlns="http://www.w3.org/2000/svg">
<g clip-path="url(#clip0_28_114)">
<path d="M399.396 33.4787H335.985V71.0247H399.396V33.4787Z" fill="#2F2E41"/>
<path d="M273.163 39.5328H240.47V28.1323C240.47 23.7968 242.192 19.639 245.258 16.5733C248.323 13.5077 252.481 11.7855 256.816 11.7855C261.152 11.7855 265.31 13.5077 268.375 16.5733C271.441 19.639 273.163 23.7968 273.163 28.1323V39.5328ZM241.194 38.809H272.439V28.1323C272.439 23.9888 270.793 20.015 267.864 17.0852C264.934 14.1553 260.96 12.5093 256.816 12.5093C252.673 12.5093 248.699 14.1553 245.769 17.0852C242.84 20.015 241.194 23.9888 241.194 28.1323V38.809Z" fill="#3F3D56"/>
<path d="M289.329 37.9649V33.5094L206.186 35.7371L203.554 148.592L215.859 163.792L289.329 37.9649Z" fill="#3F3D56"/>
<path d="M304.047 36.3963L213.929 38.4471L215.859 163.792L302.828 154.418L304.047 36.3963Z" fill="#CD51EC"/>
<path d="M380.666 442.505H370.437L365.571 403.05H380.668L380.666 442.505Z" fill="#FFB6B6"/>
<path d="M383.275 452.42L350.292 452.419V452.002C350.292 448.597 351.645 445.332 354.052 442.925C356.46 440.517 359.725 439.165 363.13 439.164H363.131L383.275 439.165L383.275 452.42Z" fill="#2F2E41"/>
<path d="M343.12 442.505H332.891L328.025 403.05H343.122L343.12 442.505Z" fill="#FFB6B6"/>
<path d="M345.729 452.42L312.746 452.419V452.002C312.746 448.597 314.099 445.332 316.506 442.925C318.914 440.517 322.179 439.165 325.584 439.164H325.584L345.729 439.165L345.729 452.42Z" fill="#2F2E41"/>
<path d="M313.08 195.455C313.08 195.455 298.134 227.641 311.636 292.425C325.138 357.209 325.25 428.331 325.25 428.331L345.895 428.668L357.492 275.547L363.565 426.506H383.904L401.83 277.933C401.83 277.933 413.626 211.591 387.321 199.713L313.08 195.455Z" fill="#2F2E41"/>
<path d="M384.617 81.8714L339.414 77.7045C325.238 88.0368 317.282 106.594 318.915 125.741C321.13 151.702 320.381 187.429 302.61 202.95C302.61 202.95 351.044 241.176 394.068 204.91C394.068 204.91 379.356 165.497 389.457 149.758C399.558 134.019 403.202 89.7977 384.617 81.8714Z" fill="#E4E4E4"/>
<path d="M250.115 17.7232C249.976 19.0262 250.125 20.3438 250.551 21.5831C250.976 22.8224 251.668 23.9533 252.579 24.8961C253.489 25.8389 254.594 26.5708 255.818 27.0401C257.041 27.5094 258.353 27.7047 259.66 27.6123L319.344 83.312L330.041 67.0172L268.01 17.3901C267.709 15.2045 266.617 13.2052 264.941 11.7709C263.264 10.3367 261.12 9.56722 258.914 9.60828C256.708 9.64935 254.594 10.4981 252.973 11.9938C251.351 13.4894 250.334 15.528 250.115 17.7232V17.7232Z" fill="#FFB6B6"/>
<path d="M308.199 74.7074L322.357 60.1631C322.76 59.7493 323.248 59.4272 323.786 59.2187C324.325 59.0102 324.902 58.9202 325.478 58.9549C326.055 58.9896 326.617 59.1481 327.127 59.4196C327.637 59.6912 328.082 60.0694 328.432 60.5286L340.707 76.6171C342.812 78.6903 344.01 81.5138 344.037 84.4684C344.063 87.423 342.918 90.2677 340.85 92.3788C338.783 94.49 335.963 95.6953 333.008 95.7305C330.054 95.7656 327.206 94.6279 325.089 92.5666L308.727 80.7702C308.259 80.4323 307.868 79.9974 307.583 79.4952C307.298 78.9929 307.125 78.4352 307.075 77.8598C307.024 77.2845 307.099 76.705 307.293 76.1611C307.487 75.6171 307.796 75.1213 308.199 74.7075V74.7074Z" fill="#E4E4E4"/>
<path d="M471.851 153.365C471.917 152.056 471.695 150.749 471.201 149.535C470.707 148.321 469.954 147.23 468.993 146.34C468.032 145.449 466.887 144.78 465.639 144.379C464.392 143.978 463.071 143.856 461.771 144.021L399.085 91.7233L389.31 108.587L454.002 154.691C454.424 156.857 455.625 158.792 457.379 160.131C459.132 161.47 461.316 162.119 463.516 161.956C465.716 161.792 467.78 160.827 469.316 159.244C470.852 157.661 471.754 155.569 471.851 153.365V153.365Z" fill="#FFB6B6"/>
<path d="M410.691 99.6953L397.362 115.004C396.983 115.439 396.514 115.788 395.988 116.026C395.462 116.264 394.891 116.386 394.313 116.384C393.735 116.381 393.165 116.254 392.641 116.011C392.117 115.768 391.652 115.415 391.276 114.976L378.127 99.5947C375.909 97.6417 374.556 94.8891 374.365 91.9403C374.174 88.9916 375.16 86.0874 377.107 83.8645C379.054 81.6416 381.803 80.2815 384.751 80.0823C387.699 79.8832 390.606 80.8613 392.834 82.8022L409.827 93.6713C410.313 93.9827 410.727 94.3952 411.039 94.8808C411.352 95.3664 411.556 95.9137 411.638 96.4854C411.72 97.0571 411.678 97.6397 411.515 98.1936C411.351 98.7476 411.07 99.2598 410.691 99.6953V99.6953Z" fill="#E4E4E4"/>
<path d="M478.22 175.478H453.455V166.843C453.455 163.559 454.76 160.409 457.082 158.087C459.404 155.765 462.553 154.46 465.837 154.46C469.121 154.46 472.271 155.765 474.593 158.087C476.915 160.409 478.22 163.559 478.22 166.843L478.22 175.478ZM454.003 174.93H477.671V166.843C477.671 163.704 476.424 160.694 474.205 158.475C471.986 156.255 468.976 155.009 465.837 155.009C462.699 155.009 459.689 156.255 457.469 158.475C455.25 160.694 454.003 163.704 454.003 166.843V174.93Z" fill="#3F3D56"/>
<path d="M490.465 174.29V170.915L427.486 172.603L425.493 258.087L434.813 269.601L490.465 174.29Z" fill="#3F3D56"/>
<path d="M501.614 173.102L433.352 174.656L434.813 269.601L500.69 262.501L501.614 173.102Z" fill="#CD51EC"/>
<path d="M365.187 70.1904C379.933 70.1904 391.887 58.2366 391.887 43.491C391.887 28.7453 379.933 16.7916 365.187 16.7916C350.442 16.7916 338.488 28.7453 338.488 43.491C338.488 58.2366 350.442 70.1904 365.187 70.1904Z" fill="#FFB6B6"/>
<path d="M352.895 31.5915C362.131 40.643 378.204 41.5105 388.361 33.5058C391.18 43.2287 391.489 53.5075 389.258 63.3821C387.027 73.2567 382.33 82.4047 375.605 89.9716C381.255 92.0131 387.759 90.67 392.81 87.4162C397.86 84.1624 401.6 79.1943 404.422 73.891C411.408 60.7627 413.158 44.7325 408.215 30.7064C403.272 16.6802 391.43 5.04964 377.044 1.28358C362.657 -2.48249 346.161 2.16954 336.549 13.5174C326.498 25.3838 324.87 42.771 329.274 57.6852C333.679 72.5994 343.339 85.4074 353.954 96.7727C348.855 83.6629 345.475 69.9486 343.895 55.9713C343.355 51.1844 343.04 46.25 344.392 41.6264C345.745 37.0029 349.073 32.6962 353.712 31.3971" fill="#2F2E41"/>
<path d="M464.87 381.564H440.105V372.928C440.105 369.644 441.41 366.495 443.732 364.173C446.054 361.851 449.204 360.546 452.488 360.546C455.772 360.546 458.921 361.851 461.243 364.173C463.565 366.495 464.87 369.644 464.87 372.928L464.87 381.564ZM440.654 381.016H464.322V372.928C464.322 369.79 463.075 366.78 460.856 364.561C458.636 362.341 455.626 361.095 452.488 361.095C449.349 361.095 446.339 362.341 444.12 364.561C441.9 366.78 440.654 369.79 440.654 372.928V381.016Z" fill="#CACACA"/>
<path d="M477.115 380.376V377.001L414.136 378.689L412.143 464.173L421.464 475.687L477.115 380.376Z" fill="#CACACA"/>
<path d="M488.264 379.188L420.002 380.742L421.464 475.687L487.34 468.587L488.264 379.188Z" fill="#E4E4E4"/>
</g>
<defs>
<clipPath id="clip0_28_114">
<rect width="544" height="475.687" fill="white" transform="translate(-29)"/>
</clipPath>
</defs>
</svg>
