<svg width="471" height="490" viewBox="0 0 471 490" fill="none" xmlns="http://www.w3.org/2000/svg">
<g clip-path="url(#clip0_26_164)">
<path d="M417.787 372.484L417.778 372.705L428.818 489.448H348.255L337.813 417.748L333.217 487.61L250.485 486.691L259.273 394.969L266.746 352.454V352.445L267.868 346.047H415.59L415.783 348.363L417.787 372.484Z" fill="#2F2E41"/>
<path d="M204.883 440.161C213.415 441.715 222.312 432.106 224.755 418.699C225.824 412.829 225.479 407.205 224.038 402.606L225.346 394.877L247.301 290.903C247.301 290.903 287.729 210.032 287.728 195.993C287.727 181.953 276.033 175.068 276.033 175.068L260.209 175.216L210.586 296.415L201.649 385.976L200.203 398.264C197.232 402.059 194.926 407.2 193.857 413.069C191.414 426.477 196.351 438.606 204.883 440.161Z" fill="#FFB6B6"/>
<path d="M365.85 124.969L351.142 90.9575L303.341 99.2306L300.124 139.247L365.85 124.969Z" fill="#FFB6B6"/>
<path opacity="0.1" d="M365.85 124.969L351.142 90.9575L303.341 99.2306L300.124 139.247L365.85 124.969Z" fill="black"/>
<path d="M481.913 145.264C481.913 145.264 447.901 81.8365 441.466 75.4018C438.602 72.5373 434.099 72.4975 429.982 73.3323L382.635 57.017L366.587 48L365.529 65.1549L312.842 74.6115C313.135 64.1498 314.611 60.1705 314.611 60.1705L295.307 82.7558L257.618 101.141L257.639 101.306C254.873 102.272 252.251 103.924 250.264 106.656C242.91 116.768 222.687 239.946 222.687 239.946L265.891 249.138L271.771 212.24L276.003 245.461L279.22 307.51C279.22 307.51 338.052 358.068 366.548 339.684C395.044 321.299 429.976 322.218 429.976 322.218L430.847 293.457C431.468 292.465 431.814 291.883 431.814 291.883L430.895 189.862V162.715C437.898 172.471 446.349 180.862 456.174 184.792C488.347 197.661 481.913 145.264 481.913 145.264V145.264Z" fill="#C735D3" fill-opacity="0.76"/>
<path d="M322.245 105.215C346.532 105.215 366.22 85.5265 366.22 61.2398C366.22 36.953 346.532 17.2647 322.245 17.2647C297.959 17.2647 278.27 36.953 278.27 61.2398C278.27 85.5265 297.959 105.215 322.245 105.215Z" fill="#FFB6B6"/>
<path d="M353.793 73.6675C353.793 73.6675 357.617 60.2838 366.22 61.2398C374.824 62.1958 376.736 54.5479 374.824 50.724C372.912 46.9001 369.088 27.7805 369.088 27.7805C369.088 27.7805 371 14.3967 359.529 12.4848C348.057 10.5728 344.233 8.66084 342.321 4.83692C340.409 1.013 311.73 -2.81092 302.17 2.92496C292.61 8.66084 284.962 19.6659 278.27 22.7672C271.578 25.8685 265.842 31.6044 269.666 41.1642C273.49 50.724 279.036 69.4209 279.036 69.4209C279.036 69.4209 288.786 66.0197 290.698 71.7555C292.61 77.4914 284.962 69.8436 294.522 54.5479C304.082 39.2522 304.082 23.9565 319.377 29.6924C334.673 35.4283 351.881 33.5163 349.969 44.9881C348.057 56.4599 353.793 73.6675 353.793 73.6675Z" fill="#2F2E41"/>
<path d="M351.104 422.285H17.1284C7.68362 422.285 0 414.6 0 405.156V227.749C0 218.305 7.68362 210.621 17.1284 210.621H351.104C360.548 210.621 368.232 218.305 368.232 227.749V405.156C368.232 414.6 360.548 422.285 351.104 422.285Z" fill="white"/>
<path d="M351.104 422.285H17.1284C7.68362 422.285 0 414.6 0 405.156V227.749C0 218.305 7.68362 210.621 17.1284 210.621H351.104C360.548 210.621 368.232 218.305 368.232 227.749V405.156C368.232 414.6 360.548 422.285 351.104 422.285ZM17.1284 213.481C9.26113 213.481 2.86032 219.882 2.86032 227.749V405.156C2.86032 413.024 9.26113 419.424 17.1284 419.424H351.104C358.971 419.424 365.372 413.024 365.372 405.156V227.749C365.372 219.882 358.971 213.481 351.104 213.481H17.1284Z" fill="#3F3D56"/>
<path d="M325.327 232.073C327.697 232.073 329.618 230.152 329.618 227.783C329.618 225.413 327.697 223.492 325.327 223.492C322.958 223.492 321.037 225.413 321.037 227.783C321.037 230.152 322.958 232.073 325.327 232.073Z" fill="#3F3D56"/>
<path d="M336.769 232.073C339.138 232.073 341.059 230.152 341.059 227.783C341.059 225.413 339.138 223.492 336.769 223.492C334.399 223.492 332.478 225.413 332.478 227.783C332.478 230.152 334.399 232.073 336.769 232.073Z" fill="#3F3D56"/>
<path d="M348.21 232.073C350.579 232.073 352.5 230.152 352.5 227.783C352.5 225.413 350.579 223.492 348.21 223.492C345.84 223.492 343.919 225.413 343.919 227.783C343.919 230.152 345.84 232.073 348.21 232.073Z" fill="#3F3D56"/>
<path d="M24.3127 297.146C23.1298 297.146 22.1675 298.108 22.1675 299.291C22.1675 299.868 22.3902 300.401 22.7946 300.795C23.2024 301.213 23.7366 301.436 24.3127 301.436H345.349C346.532 301.436 347.495 300.474 347.495 299.291C347.495 298.714 347.272 298.181 346.868 297.787C346.46 297.369 345.926 297.146 345.349 297.146H24.3127Z" fill="#E6E6E6"/>
<path d="M305.305 296.431V302.151H24.313C23.5264 302.151 22.8113 301.837 22.2965 301.307C21.7672 300.793 21.4526 300.077 21.4526 299.291C21.4526 297.718 22.7398 296.431 24.313 296.431H305.305Z" fill="#6C63FF"/>
<path d="M341.774 285.704H313.171C310.017 285.704 307.45 283.139 307.45 279.984C307.45 276.829 310.017 274.263 313.171 274.263H341.774C344.928 274.263 347.495 276.829 347.495 279.984C347.495 283.139 344.928 285.704 341.774 285.704Z" fill="#E6E6E6"/>
<path d="M154.423 255.671H26.458C23.3036 255.671 20.7373 253.105 20.7373 249.95C20.7373 246.795 23.3036 244.23 26.458 244.23H154.423C157.577 244.23 160.143 246.795 160.143 249.95C160.143 253.105 157.577 255.671 154.423 255.671Z" fill="#E6E6E6"/>
<path d="M24.3127 361.503C23.1298 361.503 22.1675 362.465 22.1675 363.648C22.1675 364.225 22.3902 364.759 22.7946 365.152C23.2024 365.57 23.7366 365.793 24.3127 365.793H345.349C346.532 365.793 347.495 364.831 347.495 363.648C347.495 363.071 347.272 362.538 346.868 362.144C346.46 361.726 345.926 361.503 345.349 361.503H24.3127Z" fill="#E6E6E6"/>
<path d="M195.183 360.788V366.508H24.313C23.5264 366.508 22.8113 366.194 22.2965 365.665C21.7672 365.15 21.4526 364.435 21.4526 363.648C21.4526 362.075 22.7398 360.788 24.313 360.788H195.183Z" fill="#6C63FF"/>
<path d="M341.774 350.062H313.171C310.017 350.062 307.45 347.496 307.45 344.341C307.45 341.186 310.017 338.62 313.171 338.62H341.774C344.928 338.62 347.495 341.186 347.495 344.341C347.495 347.496 344.928 350.062 341.774 350.062Z" fill="#E6E6E6"/>
<path d="M391.848 108.6C416.586 108.6 436.64 88.9685 436.64 64.7521C436.64 40.5358 416.586 20.9045 391.848 20.9045C367.111 20.9045 347.057 40.5358 347.057 64.7521C347.057 88.9685 367.111 108.6 391.848 108.6Z" fill="#6C63FF"/>
<path d="M407.05 42.6351C401.087 53.4933 395.124 64.3516 389.161 75.2099C385.36 68.4949 381.581 61.768 377.771 55.0582C376.455 52.7409 372.876 54.8252 374.195 57.1483C378.612 64.9264 382.982 72.7304 387.399 80.5086C388.154 81.8385 390.227 81.8694 390.974 80.5086C397.525 68.5808 404.075 56.653 410.626 44.7252C411.91 42.3879 408.335 40.2961 407.05 42.6351Z" fill="white"/>
<path d="M453.681 180.329L409.054 158.981C409.054 158.981 407.262 144.693 398.893 139.596C397.47 136.202 395.833 132.473 394.346 129.519C390.669 122.212 396.185 108.423 391.589 108.423C386.992 108.423 380.198 122.924 380.558 126.808C380.834 129.789 383.297 134.993 383.806 139.549C378.202 141.663 373.68 145.286 370.708 148.171C368.135 150.667 367.179 154.392 368.185 157.833C371.098 167.804 378.38 188.397 388.831 188.397C402.619 188.397 406.296 185.639 406.296 185.639C406.296 185.639 434.793 221.49 455.935 224.247C477.078 227.005 453.681 180.329 453.681 180.329V180.329Z" fill="#FFB6B6"/>
</g>
<defs>
<clipPath id="clip0_26_164">
<rect width="470.249" height="489.448" fill="white"/>
</clipPath>
</defs>
</svg>
