<svg width="632" height="588" viewBox="0 0 632 588" fill="none" xmlns="http://www.w3.org/2000/svg">
<path d="M122.751 578.62L136.522 578.619L143.072 525.502L122.748 525.504L122.751 578.62Z" fill="#FFB6B6"/>
<path d="M169.931 578.308C170.36 579.03 170.586 581.361 170.586 582.201C170.586 584.782 168.494 586.874 165.913 586.874H123.266C121.505 586.874 120.077 585.447 120.077 583.686V581.91C120.077 581.91 117.968 576.574 122.311 569.997C122.311 569.997 127.709 575.147 135.776 567.08L138.155 562.771L155.374 575.364L164.918 576.539C167.006 576.796 168.857 576.499 169.931 578.308H169.931H169.931Z" fill="#2F2E41"/>
<path d="M198.593 578.62L212.364 578.619L218.915 525.502L198.59 525.504L198.593 578.62Z" fill="#FFB6B6"/>
<path d="M245.774 578.308C246.202 579.03 246.429 581.361 246.429 582.201C246.429 584.782 244.336 586.874 241.755 586.874H199.108C197.347 586.874 195.92 585.447 195.92 583.686V581.91C195.92 581.91 193.81 576.574 198.153 569.997C198.153 569.997 203.552 575.147 211.618 567.08L213.997 562.771L231.216 575.364L240.76 576.539C242.848 576.796 244.699 576.499 245.774 578.308H245.774H245.774Z" fill="#2F2E41"/>
<path d="M193.061 155.79C193.061 155.79 208.922 148.567 219.049 155.79C229.176 163.013 238.205 228.021 227.37 238.855C216.536 249.69 198.478 225.312 198.478 225.312L193.061 155.79Z" fill="#FFB6B6"/>
<path d="M133.117 156.65C133.117 156.65 117.256 149.427 107.129 156.65C97.0014 163.873 87.9726 228.881 98.8072 239.716C109.642 250.55 127.699 226.172 127.699 226.172L133.117 156.65Z" fill="#FFB6B6"/>
<path d="M133.568 236.556C133.568 236.556 128.151 260.933 121.831 271.768L167.878 298.854L203.993 275.38C203.993 275.38 186.838 247.39 189.547 239.264L133.568 236.556Z" fill="#FFB6B6"/>
<path d="M447.296 575.913L429.611 575.912L421.199 507.699L447.3 507.701L447.296 575.913Z" fill="#FFB6B6"/>
<path d="M386.706 575.512C386.156 576.44 385.865 579.433 385.865 580.511C385.865 583.826 388.552 586.513 391.867 586.513H446.635C448.896 586.513 450.729 584.68 450.729 582.419V580.138C450.729 580.138 453.439 573.285 447.861 564.839C447.861 564.839 440.928 571.453 430.569 561.094L427.514 555.56L405.401 571.732L393.145 573.24C390.463 573.57 388.086 573.189 386.707 575.512H386.706Z" fill="#2F2E41"/>
<path d="M501.961 575.913L484.276 575.912L475.864 507.699L501.964 507.701L501.961 575.913Z" fill="#FFB6B6"/>
<path d="M441.371 575.512C440.82 576.44 440.53 579.433 440.53 580.511C440.53 583.826 443.217 586.513 446.532 586.513H501.299C503.561 586.513 505.394 584.68 505.394 582.419V580.138C505.394 580.138 508.103 573.285 502.525 564.839C502.525 564.839 495.593 571.453 485.234 561.094L482.179 555.56L460.066 571.732L447.81 573.24C445.128 573.57 442.751 573.189 441.371 575.512H441.371Z" fill="#2F2E41"/>
<path d="M410.504 182.413C410.504 182.413 407.943 198.899 410.909 209.538L367.352 286.777L384.296 299.126L440.88 227.933L448.721 192.758L410.504 182.413Z" fill="#FFB6B6"/>
<path d="M381.696 310.361C387.699 299.717 387.235 288.082 380.661 284.375C374.086 280.667 363.891 286.291 357.888 296.935C351.886 307.579 352.349 319.213 358.924 322.921C365.498 326.628 375.694 321.005 381.696 310.361Z" fill="#FFB6B6"/>
<path d="M427.497 260.997C427.497 260.997 406.672 275.693 413.831 297.63L407.974 371.628L420.989 523.909H449.024L453.528 414.579L471.749 345.597L474.112 523.909L508.843 523.258C508.843 523.258 510.796 434.102 508.193 428.896C505.59 423.69 508.193 427.866 508.193 427.866L529.668 323.456L526.414 251.886L427.497 260.997Z" fill="#2F2E41"/>
<path d="M478.908 79.4313L441.163 93.7483L445.068 104.161L413.831 127.588L434.655 200.475L422.942 265.552L456.782 264.251L529.668 257.743L521.859 178.349L523.16 101.558L494.526 91.1452L478.908 79.4313Z" fill="#6C63FF"/>
<path d="M423.592 125.636L413.831 127.588C413.831 127.588 409.275 130.842 409.275 142.556C409.275 154.27 409.275 162.079 410.577 168.587C410.577 168.587 402.768 189.412 405.371 194.618C407.974 199.824 440.512 199.824 440.512 199.824L423.592 125.636V125.636Z" fill="#6C63FF"/>
<path d="M477.381 49.2293C477.381 65.6151 464.098 78.8984 447.712 78.8984C431.326 78.8984 418.043 65.6151 418.043 49.2293C418.043 32.8435 431.326 19.5602 447.712 19.5602C464.098 19.5602 477.381 32.8435 477.381 49.2293Z" fill="#FFB6B6"/>
<path d="M466.253 69.8887C466.253 69.8887 471.509 49.6958 465.908 53.2565L457.216 52.4305L462.704 37.7501C462.704 37.7501 452.88 30.3849 448.962 34.6901C445.045 38.9954 445.984 41.4234 442.423 35.8228C438.863 30.2222 431.423 30.3281 424.608 34.3581C417.793 38.388 412.468 39.0514 413.764 31.5735C415.059 24.0956 414.333 11.389 418.378 12.83C422.424 14.271 421.315 15.0844 423.496 9.86245C425.678 4.6405 425.953 1.74321 431.003 3.97716C436.053 6.21111 448.744 -4.27678 453.987 2.06845C459.231 8.41367 463.812 9.43364 468.393 10.4536C472.973 11.4736 491.377 8.5449 489.838 37.0485C489.838 37.0485 502.122 61.6034 479.995 72.9486C479.995 72.9486 473.99 67.0226 469.797 74.2251L466.253 69.8887H466.253Z" fill="#2F2E41"/>
<path d="M181.421 133.627L152.529 134.53L137.18 153.49L120.025 157.102C120.025 157.102 114.608 207.663 122.734 225.721C130.859 243.779 127.248 249.196 127.248 249.196L192.256 248.293C192.256 248.293 190.45 236.029 201.284 225.458L206.718 205.35C209.623 194.599 208.633 183.168 203.924 173.076L192.256 148.073L182.324 144.461L181.421 133.627V133.627Z" fill="#2F2E41"/>
<path d="M127.248 260.03L123.185 266.802C123.185 266.802 110.545 283.957 108.739 332.713C106.933 381.468 121.831 539.235 121.831 539.235H142.448L164.736 325.785L194.513 539.473L221.148 539.924L218.891 321.878C218.891 321.878 213.473 272.219 199.027 261.385C199.027 261.385 152.529 303.369 127.248 260.03Z" fill="#2F2E41"/>
<path d="M89.6461 153.069C89.6461 162.442 89.0815 169.417 78.8456 170.041C69.2318 170.627 68.0452 162.442 68.0452 153.069C68.0452 143.695 68.269 136.172 78.8456 136.096C90.8872 136.01 89.6461 143.695 89.6461 153.069Z" fill="#6C63FF"/>
<path d="M149.82 153.069C149.82 162.442 152.283 169.417 139.02 170.041C128.816 170.521 128.219 162.442 128.219 153.069C128.219 143.695 129.718 137.148 139.02 136.096C147.769 135.107 149.82 143.695 149.82 153.069Z" fill="#6C63FF"/>
<path d="M140.562 145.354H80.3884V159.24H140.562V145.354Z" fill="#6C63FF"/>
<path d="M193.478 150.36C193.478 159.733 192.913 166.708 182.677 167.332C173.063 167.918 171.877 159.733 171.877 150.36C171.877 140.986 172.101 133.464 182.677 133.388C194.719 133.301 193.478 140.986 193.478 150.36Z" fill="#6C63FF"/>
<path d="M253.652 150.36C253.652 159.733 256.115 166.708 242.851 167.332C232.647 167.812 232.051 159.733 232.051 150.36C232.051 140.986 233.55 134.44 242.851 133.388C251.6 132.398 253.652 140.986 253.652 150.36Z" fill="#6C63FF"/>
<path d="M244.394 142.645H184.22V156.532H244.394V142.645Z" fill="#6C63FF"/>
<path d="M350.579 298.433C350.579 307.806 350.015 314.781 339.779 315.405C330.165 315.991 328.979 307.806 328.979 298.433C328.979 289.059 329.202 281.537 339.779 281.461C351.821 281.374 350.579 289.059 350.579 298.433Z" fill="#6C63FF"/>
<path d="M410.754 298.433C410.754 307.806 413.217 314.781 399.953 315.405C389.749 315.885 389.153 307.806 389.153 298.433C389.153 289.059 390.651 282.512 399.953 281.461C408.702 280.471 410.754 289.059 410.754 298.433Z" fill="#6C63FF"/>
<path d="M401.496 290.718H341.322V304.605H401.496V290.718Z" fill="#6C63FF"/>
<path d="M214.769 171.687C221.248 171.687 226.5 163.183 226.5 152.694C226.5 142.205 221.248 133.701 214.769 133.701C208.29 133.701 203.038 142.205 203.038 152.694C203.038 163.183 208.29 171.687 214.769 171.687Z" fill="#FFB6B6"/>
<path d="M159.3 122.792C177.002 122.792 191.353 108.442 191.353 90.7398C191.353 73.0378 177.002 58.6874 159.3 58.6874C141.598 58.6874 127.248 73.0378 127.248 90.7398C127.248 108.442 141.598 122.792 159.3 122.792Z" fill="#FFB6B6"/>
<path d="M152.865 100.811L160.281 89.0094L163.621 72.9592C163.621 72.9592 197.404 81.1991 188.34 64.7193C179.277 48.2395 156.205 44.1196 140.549 56.4794L133.801 63.0713C133.801 63.0713 148.789 49.0635 139.725 44.1196C130.661 39.1756 132.309 35.8797 127.365 39.9996C122.421 44.1196 124.893 47.4155 119.125 44.9435C113.357 42.4716 100.998 39.1756 102.646 43.2956C104.294 47.4155 91.8624 58.1274 96.43 63.0713C100.998 68.0152 96.8777 77.9031 105.118 75.4311C113.357 72.9592 109.238 85.319 116.653 80.3751C116.653 80.3751 110.567 88.132 115.51 93.8999C120.454 99.6678 128.072 101.912 127.248 110.152C126.424 118.392 146.208 120.083 146.208 120.083L144.669 96.0309C144.669 96.0309 149.569 92.0134 152.865 100.811Z" fill="#2F2E41"/>
<path d="M479.191 156.119C479.191 156.119 474.465 172.12 475.994 183.057L422.575 253.836L437.731 268.323L503.259 205.266L515.697 171.442L479.191 156.119V156.119Z" fill="#FFB6B6"/>
<path d="M433.663 279.114C441.025 269.36 442.109 257.767 436.084 253.22C430.06 248.674 419.209 252.895 411.847 262.649C404.486 272.402 403.402 283.995 409.426 288.542C415.451 293.089 426.302 288.868 433.663 279.114Z" fill="#FFB6B6"/>
<path d="M517.902 97.2816C517.902 97.2816 534.544 103.319 532.427 114.766C530.31 126.214 529.506 133.76 529.506 133.76C529.506 133.76 531.31 140.013 528.957 143.13C526.605 146.246 514.529 182.789 514.529 182.789L471.094 167.945C471.094 167.945 496.556 97.4774 517.902 97.2816Z" fill="#6C63FF"/>
<path d="M123.139 153.554C123.139 164.044 117.887 172.547 111.408 172.547C104.93 172.547 99.6777 164.044 99.6777 153.554C99.6777 143.065 104.93 134.562 111.408 134.562C117.887 134.562 123.139 143.065 123.139 153.554Z" fill="#FFB6B6"/>
</svg>
