<svg width="471" height="685" viewBox="0 0 471 685" fill="none" xmlns="http://www.w3.org/2000/svg">
<g clip-path="url(#clip0_5_57)">
<path d="M295.926 22.0472C301.886 21.8969 307.318 26.131 310.067 31.4205C312.817 36.71 313.316 42.8774 313.178 48.8373C313.04 54.7972 312.319 60.7665 312.844 66.7049C313.961 79.3381 321.032 91.3166 331.553 98.3987C327.588 98.7062 323.696 96.8693 320.701 94.2533C317.705 91.6374 315.462 88.2858 313.256 84.9764C311.39 82.1759 309.513 79.3566 308.172 76.2692C306.209 71.7462 305.463 66.8041 304.757 61.9241C303.02 49.909 301.418 37.8743 299.952 25.8232" fill="#987210"/>
<path d="M194.961 670.059L215.072 670.058L224.639 592.483L194.957 592.485L194.961 670.059Z" fill="#FFBD80"/>
<path d="M263.865 669.603C264.492 670.658 264.822 674.062 264.822 675.288C264.822 679.058 261.766 682.114 257.996 682.114H195.713C193.141 682.114 191.056 680.029 191.056 677.458V674.864C191.056 674.864 187.975 667.071 194.319 657.465C194.319 657.465 202.203 664.987 213.983 653.206L217.457 646.912L242.605 665.304L256.543 667.02C259.593 667.395 262.297 666.961 263.865 669.603H263.865V669.603Z" fill="#F363FF"/>
<path d="M281.753 655.414L301.304 660.131L328.805 586.967L299.95 580.005L281.753 655.414Z" fill="#FFBD80"/>
<path d="M348.842 671.137C349.203 672.31 348.726 675.696 348.438 676.888C347.554 680.553 343.866 682.807 340.201 681.922L279.656 667.309C277.156 666.706 275.619 664.19 276.222 661.69L276.831 659.169C276.831 659.169 275.664 650.87 284.084 643.021C284.084 643.021 289.983 652.182 304.199 643.494L309.053 638.192L329.183 661.97L342.33 666.908C345.207 667.988 347.937 668.201 348.842 671.137L348.842 671.137V671.137Z" fill="#F363FF"/>
<path d="M398.387 282.857C394.639 279.817 391.889 276.184 390.352 272.602L352.825 245.904L366.052 228.419L402.694 257.384C406.517 258.149 410.64 260.09 414.387 263.129C422.948 270.072 426.306 280.117 421.887 285.565C417.469 291.012 406.947 289.8 398.387 282.857H398.387V282.857Z" fill="#FFBD80"/>
<path d="M391.465 243.535L389.712 247.12L380.621 265.676L377.932 271.152L351.487 247.406L330.222 228.317L280.236 183.444C276.769 180.331 275.075 176.106 275.075 171.9C275.075 166.867 277.498 161.874 282.177 158.84C285.072 156.959 288.51 156.102 291.947 156.397C300.063 157.097 316.413 158.594 333.758 160.662L339.726 177.938L336.801 193.461L328.843 191.107L336.092 197.184L391.465 243.535V243.535Z" fill="#171717"/>
<path d="M233.351 225.218C237.205 225.24 245.287 277.443 239.261 285.299C234.317 291.743 324.919 285.299 324.919 285.299C316.402 283.566 320.234 227.796 329.386 225.218L274.718 208.474L233.351 225.218H233.351Z" fill="#FFBD80"/>
<path d="M320.895 278.256H240.347C240.347 278.256 206.758 331.591 206.758 435.009L192.969 601.464L227.441 603.433L282.986 377.793L313.51 488.569L292.447 606.75H325.827L365.341 473.489L357.453 403.491C357.453 403.491 349.226 307.302 320.895 278.256Z" fill="#AB12B8"/>
<path d="M339.727 177.938L336.801 193.461L336.092 197.184L330.222 228.317L322.26 240.03C322.26 240.03 265.575 222.457 238.982 244.125L217.594 174.983L240.248 125.736L257.977 115.887L260.932 104.068H298.487L304.269 115.887L321.013 123.766L333.758 160.662L339.727 177.938Z" fill="#171717"/>
<path d="M328.323 121.72C325.254 125.443 321.598 128.164 318.004 129.672L291.007 166.984L273.628 153.618L302.885 117.208C303.681 113.392 305.655 109.285 308.724 105.562C315.735 97.0572 325.806 93.7797 331.219 98.2416C336.631 102.703 335.334 113.215 328.323 121.72V121.72V121.72Z" fill="#FFBD80"/>
<path d="M255.544 126.36C255.544 126.36 226.953 110.641 217.67 126.36C209.75 139.771 202.866 207.535 201.016 227.141C200.691 230.582 201.522 234.023 203.378 236.939V236.939C208.873 245.575 221.072 246.632 227.971 239.069L316.454 142.079L288.946 128.325L241.79 177.446L255.544 126.36V126.36Z" fill="#171717"/>
<path d="M275.164 96.5526C295.019 96.5526 311.114 80.4572 311.114 60.6024C311.114 40.7477 295.019 24.6522 275.164 24.6522C255.309 24.6522 239.214 40.7477 239.214 60.6024C239.214 80.4572 255.309 96.5526 275.164 96.5526Z" fill="#FFBD80"/>
<path d="M302.848 41.1724C297.242 44.9567 293.656 51.2987 292.745 60.7494C289.224 57.9536 288.703 52.8674 290.042 46.3601C287.594 53.0209 267.721 86.9207 266.41 97.6377C265.578 104.464 268.308 111.344 272.499 116.792C276.417 121.87 281.523 125.857 286.752 129.597C276.923 126.007 268.731 118.102 264.84 108.382C259.216 94.3474 262.56 78.7293 266.984 64.026C265.946 65.9782 264.458 69.5415 262.738 70.934C260.526 72.7224 257.905 72.1626 256.13 74.388C253.973 77.0912 253.564 80.8728 254.233 84.2721C254.915 87.6716 256.553 90.7842 258.164 93.8423C235.371 89.5566 228.594 63.5065 239.011 45.7593C232.348 57.7187 230.901 81.8011 239.379 92.5318C244.13 98.5523 251.011 103.249 253.386 110.539C255.052 115.659 254.137 121.365 251.843 126.239C249.55 131.113 245.959 135.263 242.164 139.086C240.608 140.656 239.01 142.171 237.345 143.646C235.504 141.771 232.381 142.658 231.701 145.195C231.324 146.605 230.727 148.058 229.973 149.543C223.228 151.074 214.12 148.949 212.73 158.431C212.359 160.96 207.788 159.837 205.249 160.247C205.932 158.343 203.723 156.658 202.108 157.876C199.998 159.467 197.75 160.4 195.392 160.793C189.385 160.465 183.501 158.936 178.285 155.96C194.914 145.598 209.502 148.588 216.001 130.103C217.019 127.211 217.346 121.18 217.328 114.395C217.287 99.012 213.669 83.9118 207.439 69.847C206.679 68.1311 206.1 66.4731 205.849 65.0226C204.033 54.5514 206.859 40.1619 211.447 33.3905C216.034 26.6327 223.966 22.264 232.143 22.0456C236.225 21.9226 238.655 23.7111 242.26 21.7862C246.11 19.7247 247.011 22.4278 249.618 18.9328C254.273 12.6938 262.205 9.47187 269.987 9.19881C277.769 8.92575 282.124 6.75447 289.196 10.0174C293.66 12.0789 298.802 23.6272 303.722 23.6975C313.907 23.8432 315.861 32.3868 302.848 41.1724V41.1724Z" fill="#987210"/>
<path d="M287.885 130.403C287.503 130.13 287.134 129.87 286.752 129.597C287.052 129.72 287.353 129.83 287.653 129.925L287.885 130.403V130.403Z" fill="#2F2E41"/>
<path d="M463.186 276.541C457.512 269.843 449.224 266.002 440.446 266.002H405.943C396.876 266.002 388.415 270.052 382.729 277.114C377.043 284.176 374.891 293.306 376.826 302.164L384.355 336.641C382.507 341.377 381.482 346.525 381.482 351.916C381.482 375.14 400.308 393.967 423.532 393.967C446.756 393.967 465.583 375.14 465.583 351.916C465.583 347.34 464.843 342.94 463.491 338.816L469.843 300.705C471.286 292.046 468.86 283.238 463.186 276.541L463.186 276.541ZM423.532 309.865C411.297 309.865 400.287 315.094 392.603 323.435L387.45 299.844C386.222 294.218 387.589 288.419 391.2 283.934C394.811 279.449 400.185 276.877 405.943 276.877H440.446C446.021 276.877 451.285 279.316 454.888 283.57C458.492 287.824 460.033 293.418 459.116 298.917L454.941 323.967C447.239 315.318 436.025 309.865 423.532 309.865V309.865Z" fill="#3F3D56"/>
<path d="M161.264 578.264C156.815 573.012 150.315 570 143.432 570H116.376C109.267 570 102.632 573.176 98.1736 578.714C93.7149 584.251 92.0276 591.41 93.5444 598.357L99.4486 625.392C97.9994 629.106 97.1954 633.143 97.1954 637.369C97.1954 655.581 111.958 670.344 130.169 670.344C148.381 670.344 163.144 655.581 163.144 637.369C163.144 633.782 162.563 630.331 161.503 627.097L166.484 597.212C167.616 590.423 165.713 583.516 161.264 578.264H161.264ZM130.169 604.395C120.575 604.395 111.942 608.496 105.916 615.036L101.876 596.537C100.912 592.126 101.984 587.579 104.816 584.062C107.648 580.545 111.861 578.528 116.376 578.528H143.432C147.804 578.528 151.931 580.441 154.757 583.776C157.583 587.112 158.791 591.498 158.072 595.81L154.799 615.454C148.759 608.671 139.965 604.395 130.169 604.395V604.395Z" fill="#3F3D56"/>
<path d="M245.775 25.6852L243.168 24.8772C243.557 15.7282 246.03 7.39888 250.869 0L253.477 0.807936L245.775 25.6852Z" fill="#AB12B8"/>
<path d="M245.79 22.4842L244.114 24.6397L223.55 8.66179L225.225 6.50632C234.304 9.7114 240.929 15.2562 245.79 22.4842Z" fill="#F363FF"/>
</g>
<defs>
<clipPath id="clip0_5_57">
<rect width="607.251" height="684.842" fill="white" transform="translate(-137)"/>
</clipPath>
</defs>
</svg>
