<svg width="217" height="438" viewBox="0 0 217 438" fill="none" xmlns="http://www.w3.org/2000/svg">
<g clip-path="url(#clip0_7_106)">
<path d="M122.899 390.162L111.135 390.162L114.927 420.905L122.898 420.906L122.899 390.162Z" fill="#CE848F"/>
<path d="M112.275 421.623C110.685 423.314 98.2071 429.708 98.8404 432.666C98.8404 433.63 99.2447 434.499 99.8982 435.112C100.498 435.691 101.313 436.042 102.209 436.042H117.214L117.679 435.078L119.801 430.699L120.623 435.078L120.805 436.042H126.464L126.383 435.071L124.874 416.974L122.9 416.853L114.37 416.348L112.275 416.22V421.623L112.275 421.623H112.275Z" fill="#AB12B8"/>
<path d="M73.0443 311.766L65.4699 320.767L91.4354 337.659L96.5674 331.561L73.0443 311.766Z" fill="#CE848F"/>
<path d="M90.277 340.151C90.5473 342.456 87.4059 356.121 90.0769 357.54C90.8141 358.161 91.7394 358.411 92.6293 358.306C93.4588 358.22 94.2517 357.822 94.8287 357.136L104.489 345.655L104.051 344.679L102.067 340.236L105.947 342.426L106.801 342.907L110.445 338.577L109.651 338.014L94.8316 327.517L93.4678 328.95L87.5895 335.151L86.1424 336.672L90.277 340.151V340.151V340.151Z" fill="#AB12B8"/>
<path d="M114.521 199.136L60.9376 176.3C72.515 161.474 67.4156 137.8 67.5454 113.146L121.687 114.739C120.748 133.888 115.799 153.568 130.803 176.3L135.223 188.785L114.521 199.136Z" fill="#CE848F"/>
<path d="M60.9376 176.3L61.1758 213.468L99.2556 239.677L108.948 391.021L124.872 391.817L130.445 345.637L146.773 255.535C146.773 255.535 145.573 250.093 147.742 250.185C149.911 250.277 146.369 244.52 148.774 244.491C149.525 244.482 150.116 242.771 150.574 240.422C152.044 232.882 151.137 225.07 148.18 217.979L130.803 176.3C108.06 187.685 84.7178 186.557 60.9376 176.3V176.3H60.9376Z" fill="#2F2E41"/>
<path d="M73.6016 206.068L104.672 234.854C104.672 234.854 70.7302 249.297 73.8277 251.374C76.9252 253.452 69.9222 252.76 69.9222 252.76L48.7501 268.905L36.6059 274.843L80.1476 312.076L63.0816 326.295L11.9647 287.238C4.72851 284.281 0 277.24 0 269.423V269.423C0 262.485 3.73438 255.288 9.77412 251.873L61.1758 213.468L73.6016 206.068L73.6016 206.068H73.6016Z" fill="#2F2E41"/>
<path d="M65.7834 147.572C63.2252 146.965 65.1568 146.587 65.6558 146.516C66.1547 146.445 65.953 144.198 65.47 144.979C64.987 145.76 60.9716 107.764 60.9716 107.764C58.0018 100.135 49.111 85.0084 56.3986 81.2984L81.877 69.3553L105.763 70.1515L131.242 80.5022C135.815 85.0269 131.137 96.8216 128.625 104.333L126.325 120.454C126.325 120.454 121.687 139.421 123.452 140.592C125.217 141.763 123.227 142.172 123.227 142.172C123.227 142.172 120.095 141.013 122.911 144.384C120.331 148.901 128.525 175.859 131.498 175.227C116.312 190.455 85.7659 185.581 63.0247 170.45C63.0247 170.45 68.3416 148.179 65.7834 147.572Z" fill="#AB12B8"/>
<path d="M148.473 124.794L112.856 128.155L113.263 140.674L158.259 136.482C163.681 135.977 167.515 130.945 166.551 125.585C164.615 114.823 145.286 90.6575 142.049 85.7706C137.075 78.2609 130.328 102.778 130.328 102.778L148.473 124.794V124.794Z" fill="#CE848F"/>
<path d="M108.583 141.95C113.42 141.95 117.341 138.029 117.341 133.192C117.341 128.355 113.42 124.434 108.583 124.434C103.746 124.434 99.8247 128.355 99.8247 133.192C99.8247 138.029 103.746 141.95 108.583 141.95Z" fill="#CE848F"/>
<path d="M65.4697 79.3605H65.4696C65.4696 79.3605 65.6394 99.1728 57.6323 95.046C52.4217 92.3605 15.5742 84.3424 8.63258 75.8936C5.17572 71.6862 6.06597 65.4229 10.5518 62.3359L47.7795 36.7169L54.2445 47.445L24.797 67.7619L65.4697 79.3605H65.4697V79.3605Z" fill="#CE848F"/>
<path d="M55.5154 49.7215C60.3525 49.7215 64.2737 45.8003 64.2737 40.9633C64.2737 36.1263 60.3525 32.2051 55.5154 32.2051C50.6784 32.2051 46.7572 36.1263 46.7572 40.9633C46.7572 45.8003 50.6784 49.7215 55.5154 49.7215Z" fill="#CE848F"/>
<path d="M35.9955 69.3553L69.4277 79.0245L62.3818 100.59C58.5108 102.015 54.2304 100.764 51.7334 97.4794L33.5693 89.8978L35.9955 69.3553H35.9955Z" fill="#AB12B8"/>
<path d="M124.143 79.0244L130.036 79.6064C133.909 78.1811 138.188 79.4326 140.684 82.7165L158.539 105.552L135.223 114.739L117.343 92.5729L124.143 79.0244Z" fill="#AB12B8"/>
<path d="M97.1335 65.9662C89.5801 63.1741 74.2744 72.6114 75.5964 63.3009C76.646 55.8798 70.7952 94.9061 69.3437 94.4544C66.7934 93.6579 73.9037 41.2123 72.4075 37.8319C72.2155 37.3948 71.9921 36.9334 71.7287 36.4526C71.4562 35.9378 71.148 35.3987 70.7997 34.8305C70.7907 34.8159 70.7773 34.8013 70.7684 34.7867C69.5625 21.5617 82.4923 10.6922 98.888 12.0521H98.9014C100.567 12.1833 102.287 12.4601 104.015 12.8584H112.162C113.042 12.8584 113.904 12.9118 114.757 13.0089C118.039 13.3926 121.099 14.5145 123.783 16.195C127.392 18.4582 129.638 22.4797 129.991 26.4719C130.268 29.5268 129.433 32.5672 127.262 34.7867L127.235 34.7916C127.521 36.0203 127.722 37.2783 127.843 38.5605C127.937 39.4832 127.977 40.4206 127.977 41.3628C127.977 41.5571 127.977 41.7562 127.963 41.9456C127.745 53.631 120.643 63.5923 110.63 67.7692C110.545 67.8047 110.455 67.8408 110.361 67.8774C107.68 68.9179 106.112 68.6041 103.334 67.9271C101.196 67.4061 99.1421 66.7087 97.1334 65.9662H97.1335L97.1335 65.9662Z" fill="#DDE100"/>
<path d="M96.9173 62.3316C107.568 62.3316 116.202 53.6977 116.202 43.0472C116.202 32.3966 107.568 23.7627 96.9173 23.7627C86.2668 23.7627 77.6328 32.3966 77.6328 43.0472C77.6328 53.6977 86.2668 62.3316 96.9173 62.3316Z" fill="#CE848F"/>
<path d="M80.1476 34.8923C80.1476 34.5528 80.1565 34.2223 80.1789 33.8829C80.6925 24.0884 88.7005 19.8276 98.6647 19.4301C98.9282 19.4167 99.1918 19.4077 99.4552 19.4077H106.61C106.61 18.6395 106.865 17.9339 107.307 17.3711C107.566 17.0228 107.896 16.7324 108.267 16.5136C108.276 16.5136 108.276 16.5091 108.281 16.5091C108.79 16.2099 109.375 16.0357 110.005 16.0357C110.103 16.0357 110.21 16.0446 110.322 16.0491C111.858 16.192 113.359 16.4243 114.837 16.7324C115.561 16.8843 116.284 17.0585 116.99 17.2505C117.048 17.2639 117.097 17.2773 117.155 17.2907C119.486 17.9339 121.733 18.7735 123.863 19.8097C126.244 21.2478 128.321 23.1147 129.991 25.3032C130.268 28.1125 129.433 30.9084 127.262 32.9495L127.235 32.9539C127.521 34.0839 127.722 35.2406 127.843 36.4197C127.937 37.2683 127.977 38.1303 127.977 38.9968C127.977 39.1754 127.977 39.3586 127.963 39.5327C127.745 50.2785 119.107 91.06 109.093 94.901C109.679 92.315 111.729 58.6752 112.028 57.7283C116.619 43.3157 113.225 39.2826 106.61 34.8923H100.188C98.9371 33.0165 98.3208 30.7208 98.486 28.4698C97.5972 30.5019 97.106 32.6904 97.0166 34.8923C93.8277 39.0995 88.5709 38.7735 82.1172 35.8481C81.7777 35.6962 81.4428 35.5354 81.1078 35.3746C80.7862 35.2183 80.4691 35.062 80.1475 34.8923H80.1476V34.8923L80.1476 34.8923Z" fill="#DDE100"/>
<path d="M122.449 35.6676C129.466 35.6676 135.154 29.9795 135.154 22.9628C135.154 15.9462 129.466 10.2581 122.449 10.2581C115.432 10.2581 109.744 15.9462 109.744 22.9628C109.744 29.9795 115.432 35.6676 122.449 35.6676Z" fill="#DDE100"/>
<path d="M114.3 1.70951C119.729 6.15438 127.997 4.19038 129.677 11.0029C131.357 17.8155 127.196 24.7 120.384 26.3799C113.571 28.0599 106.45 23.9531 105.007 17.0865C103.06 7.8264 106.62 -4.5784 114.3 1.70951V1.70951Z" fill="#DDE100"/>
</g>
<defs>
<clipPath id="clip0_7_106">
<rect width="216.766" height="437.562" fill="white"/>
</clipPath>
</defs>
</svg>
